# xmcd
#
# Track frame offsets: 
#        150
#        23061
#        39347
#        57972
#        75697
#        98407
#        117904
#        141192
#        166618
#
# Disc length: 2547 seconds
#
# Revision: 1
# Processed by: cddbd v1.5.2PL0 Copyright (c) Steve Scherf et al.
# Submitted via: ExactAudioCopy v0.95b3
#
DISCID=6109f109
DTITLE=Marvin Sease - I Got Beat Out
DYEAR=2003
DGENRE=Blues
TTITLE0=I Got Beat Out
TTITLE1=I'm Hooked On You
TTITLE2=I Can't Afford To Be Caught
TTITLE3=Do You Qualify
TTITLE4=So Glad You're Mine
TTITLE5=You Should Be Grateful
TTITLE6=Who You Been Givin' It To?
TTITLE7=I'm Goin' Out
TTITLE8=More Will Be Said Than Done
EXTD=YEAR: 2003 ID3G: 0
EXTT0=
EXTT1=
EXTT2=
EXTT3=
EXTT4=
EXTT5=
EXTT6=
EXTT7=
EXTT8=
PLAYORDER=
